<svg width="60" height="61" viewBox="0 0 60 61" fill="none" xmlns="http://www.w3.org/2000/svg">
<g id="Layer_1" clip-path="url(#clip0_71_129)">
<g id="Group">
<path id="Vector" d="M31.6243 23.2363L31.3896 26.338C31.0924 26.3616 30.7041 26.4038 30.4812 26.4562C30.1064 26.544 29.6218 26.6706 29.2807 26.7837C26.7498 27.6178 24.9145 29.2623 23.7292 31.6363C23.1315 32.835 22.8596 34.1216 22.7921 35.4521C22.7668 35.9384 22.8579 36.4078 23.1315 36.8197C23.275 37.0359 23.2716 37.203 23.1365 37.4309C22.6233 38.2988 22.6874 39.1464 23.3138 39.9366C23.4675 40.1291 23.4962 40.2658 23.3493 40.4853C22.6047 41.5929 22.6064 42.7157 23.3358 43.8335C23.4286 43.9753 23.5468 44.0969 23.3847 44.2775C22.7212 45.0171 22.7398 45.9187 22.8107 46.8254C22.9204 48.2335 23.4388 49.4627 24.4248 50.4859C24.4788 50.5416 26.1183 52.2672 28.7776 52.2672H29.4192L29.4259 52.2874H14.8008C13.1951 52.2874 11.8646 51.0464 11.7515 49.4458L9.92121 23.2363H31.6243Z" fill="#F69516"/>
<path id="Vector_2" d="M51.1645 40.5444C51.0091 40.2996 51.0024 40.1544 51.1881 39.9247C51.7942 39.1768 51.8449 38.2228 51.3215 37.4157C51.1813 37.1996 51.1898 37.0544 51.3249 36.8552C51.5444 36.5361 51.6473 36.1747 51.6575 35.7847C51.7014 33.9477 51.2236 32.2441 50.2324 30.711C48.3701 27.8271 45.672 26.338 42.2597 26.289C38.7359 26.24 35.2088 26.2096 31.6834 26.3211C31.6108 26.3228 31.5078 26.3295 31.3896 26.3379C31.0924 26.3616 30.7041 26.4038 30.4812 26.4561C30.1064 26.5439 29.6218 26.6706 29.2807 26.7837C26.7498 27.6178 24.9145 29.2623 23.7292 31.6362C23.1315 32.835 22.8596 34.1216 22.7921 35.4521C22.7668 35.9384 22.8579 36.4077 23.1315 36.8197C23.275 37.0358 23.2716 37.203 23.1365 37.4309C22.6233 38.2988 22.6874 39.1464 23.3138 39.9366C23.4675 40.129 23.4962 40.2658 23.3493 40.4853C22.6047 41.5929 22.6064 42.7157 23.3358 43.8334C23.4286 43.9753 23.5468 44.0968 23.3847 44.2775C22.7212 45.017 22.7398 45.9187 22.8107 46.8253C22.9204 48.2335 23.4388 49.4627 24.4248 50.4859C24.4788 50.5416 26.1183 52.2671 28.7776 52.2671H29.4192C32.0278 52.2671 34.6398 52.2671 37.2484 52.2655C40.1711 52.2655 43.0921 52.279 46.0147 52.2604C47.7792 52.2503 49.216 51.5023 50.3456 50.1667C51.411 48.9072 51.747 47.4214 51.6642 45.8038C51.6372 45.2619 51.514 44.7722 51.1543 44.3687C50.9754 44.1694 51.0007 44.0344 51.1391 43.825C51.85 42.7427 51.8601 41.6351 51.1645 40.5444ZM31.4082 27.8812C31.8708 27.8373 32.3317 27.8204 32.7943 27.8204C35.9264 27.8204 39.0567 27.7782 42.1871 27.8322C45.4846 27.8896 47.9125 29.4176 49.3933 32.3825C49.8694 33.3348 50.1024 34.358 50.1092 35.4301C50.1126 36.1629 49.9302 36.3621 49.1991 36.3621C45.2111 36.3621 41.2247 36.3621 37.2366 36.3621H25.3585C24.5295 36.3621 24.3117 36.1325 24.3438 35.3018C24.4923 31.4843 27.5822 28.2459 31.4082 27.8812ZM24.9482 39.2156C24.9482 39.2156 24.9398 39.2139 24.9364 39.2139C24.5886 39.1565 24.3117 38.8273 24.3539 38.5132C24.3792 38.3309 24.4451 38.1873 24.5514 38.0877C24.6595 37.9864 24.8115 37.9307 25.0039 37.9239C25.1728 37.9172 25.3416 37.9189 25.5105 37.9189C29.4158 37.9172 33.3195 37.9172 37.2248 37.9172C41.1301 37.9172 45.0084 37.9172 48.8986 37.9189C49.0539 37.9189 49.2076 37.9138 49.3629 37.9206C49.8441 37.9425 50.1126 38.1907 50.1041 38.5976C50.094 38.9877 49.8323 39.224 49.368 39.2291C48.5102 39.2375 47.6525 39.246 46.7965 39.2274C45.986 39.2105 45.2837 39.4503 44.6657 39.9805C44.198 40.3823 43.6915 40.7402 43.2238 41.1438C42.9401 41.3886 42.7172 41.4122 42.4218 41.1573C41.9237 40.7251 41.3901 40.3333 40.8819 39.9129C40.3146 39.4469 39.6713 39.2291 38.9385 39.2308C34.4439 39.2342 29.9477 39.2325 25.4531 39.2325C25.2842 39.2308 25.1137 39.2409 24.9482 39.2156ZM24.4738 41.5963C24.6848 41.1455 25.0242 40.8804 25.4851 40.8112C25.5679 40.7977 25.6557 40.7909 25.7468 40.7909C28.4855 40.7909 31.2241 40.7909 33.9627 40.7892C35.5634 40.7892 37.1657 40.8027 38.7663 40.7825C39.2729 40.7774 39.6916 40.904 40.0765 41.2383C40.5848 41.6807 41.12 42.091 41.6552 42.5013C42.4083 43.0821 43.2238 43.0804 43.9819 42.4979C44.5593 42.0522 45.1283 41.5929 45.6939 41.1303C45.9793 40.899 46.29 40.7808 46.6614 40.7875C47.3486 40.7993 48.0375 40.7825 48.7247 40.7943C49.5537 40.8061 50.1109 41.3683 50.1075 42.1703C50.1058 42.969 49.5486 43.5329 48.7145 43.5346C44.8801 43.5414 41.0457 43.5363 37.2113 43.5363C33.6149 43.538 30.0169 43.5346 26.4222 43.5413H25.8769C25.4007 43.5413 24.9803 43.435 24.6764 43.0551C24.3218 42.6144 24.2256 42.1214 24.4738 41.5963ZM46.8066 50.6277C46.3727 50.7273 45.9151 50.7611 45.4694 50.7611C40.0478 50.7695 34.6246 50.7661 29.2031 50.7661C29.1018 50.7661 29.0021 50.7644 28.9025 50.7611C27.7037 50.7273 26.5877 50.4572 25.6726 49.5707C24.5768 48.5087 24.2408 47.1917 24.3539 45.7245C24.3809 45.3615 24.6224 45.147 24.9887 45.1048C25.1424 45.0863 25.2977 45.0964 25.4514 45.0947H37.2518C41.2129 45.0947 45.1739 45.0947 49.135 45.0964C49.9302 45.0964 50.1565 45.3226 50.1565 46.1213C50.1598 48.4243 48.8817 50.16 46.8066 50.6277Z" fill="#1A1C21"/>
<path id="Vector_3" d="M38.302 32.8705C38.2328 32.8705 38.1619 32.8722 38.0926 32.8705C37.549 32.852 37.186 32.5312 37.1944 32.0804C37.2028 31.6447 37.5574 31.3375 38.0791 31.3172C38.2598 31.3104 38.4438 31.3071 38.6245 31.3206C39.1192 31.356 39.4349 31.6734 39.4282 32.1124C39.4214 32.543 39.1243 32.83 38.638 32.8672C38.5266 32.8756 38.4151 32.8672 38.302 32.8672V32.8705Z" fill="#1A1C21"/>
<path id="Vector_4" d="M31.8505 32.0669C31.9907 32.0669 32.1308 32.0551 32.2692 32.0686C32.6593 32.1091 32.9193 32.3742 32.9463 32.7423C32.975 33.1458 32.7606 33.4548 32.3706 33.5476C32.0548 33.6219 31.734 33.6337 31.4149 33.5713C30.9742 33.4869 30.6889 33.1542 30.7176 32.7659C30.7463 32.3725 31.0772 32.0804 31.5162 32.0618C31.6276 32.0568 31.7391 32.0618 31.8505 32.0618C31.8505 32.0635 31.8505 32.0652 31.8505 32.0669Z" fill="#1A1C21"/>
<path id="Vector_5" d="M34.0066 30.6755C33.8378 30.6755 33.6673 30.6957 33.5018 30.6721C33.1337 30.6181 32.8838 30.304 32.8872 29.9309C32.8906 29.556 33.1422 29.2454 33.517 29.2065C33.8091 29.1762 34.1063 29.1812 34.4 29.1981C34.8289 29.2217 35.1159 29.524 35.1227 29.9258C35.1294 30.3429 34.8306 30.6535 34.3848 30.6839C34.2599 30.6924 34.1316 30.6839 34.0066 30.6839V30.6738V30.6755Z" fill="#1A1C21"/>
<path id="Vector_6" d="M20.067 16.2243H18.3785V14.0631L16.3457 13.4958C15.802 13.3438 15.3546 12.9892 15.0844 12.4945C14.8143 11.9998 14.7552 11.4308 14.9206 10.8922L15.1401 10.178C15.4711 9.0991 16.6226 8.47776 17.7066 8.79687L21.2793 9.84539C22.2248 10.124 22.8867 11.007 22.8867 11.9931V16.1483H21.1982V11.9931C21.1982 11.7499 21.0361 11.5338 20.8031 11.4663L17.2304 10.4178C17.0295 10.3587 16.8168 10.4735 16.7543 10.6744L16.5348 11.3886C16.4926 11.5237 16.5348 11.6334 16.5652 11.6858C16.5956 11.7381 16.6631 11.8344 16.7999 11.8715L18.8733 12.4489C19.5773 12.6448 20.0687 13.2932 20.0687 14.0226V16.2243H20.067Z" fill="#1A1C21"/>
<path id="Vector_7" d="M27.7662 16.1482H13.7185C12.5281 16.1482 11.4408 16.8219 10.9106 17.889L10.0445 19.6314H31.4993L30.5352 17.8147C29.9916 16.7898 28.9262 16.1482 27.7662 16.1482Z" fill="#F69516"/>
<path id="Vector_8" d="M31.5382 24.2528H10.0056C9.07531 24.2528 8.31889 23.4964 8.31889 22.5644V20.5586C8.31889 19.6282 9.07531 18.8718 10.0056 18.8718H31.5365C32.4668 18.8718 33.2232 19.6282 33.2232 20.5586V22.5644C33.2232 23.4947 32.4668 24.2528 31.5365 24.2528H31.5382ZM10.0056 20.3914C9.91277 20.3914 9.83848 20.4674 9.83848 20.5586V22.5644C9.83848 22.6573 9.91445 22.7333 10.0056 22.7333H31.5365C31.6293 22.7333 31.7036 22.6573 31.7036 22.5644V20.5586C31.7036 20.4657 31.6276 20.3914 31.5365 20.3914H10.0056Z" fill="#1A1C21"/>
</g>
</g>
<defs>
<clipPath id="clip0_71_129">
<rect width="60" height="60" fill="white" transform="translate(0 0.5)"/>
</clipPath>
</defs>
</svg>
